<svg width="44" height="45" viewBox="0 0 44 45" fill="none" xmlns="http://www.w3.org/2000/svg">
<rect y="0.5" width="44" height="44" rx="6" fill="#00C853" fill-opacity="0.25"/>
<path d="M12.6045 17.3663C12.4991 19.1996 12.8327 21.0224 13.5723 22.8348C14.3119 24.6471 15.3923 26.264 16.8135 27.6852C18.2347 29.1063 19.8514 30.1867 21.6638 30.9263C23.4763 31.666 25.299 31.9893 27.1324 31.8961L27.0665 27.756C24.2985 27.756 21.9358 26.7773 19.9785 24.82C18.0213 22.8627 17.0426 20.5001 17.0426 17.7321L12.6045 17.3663Z" fill="url(#paint0_linear_34_82)"/>
<path d="M27.1353 31.9117C29.498 31.9117 31.4134 29.9964 31.4134 27.6336C31.4134 25.2709 29.498 23.3556 27.1353 23.3556C24.7725 23.3556 22.8572 25.2709 22.8572 27.6336C22.8572 29.9964 24.7725 31.9117 27.1353 31.9117Z" fill="url(#paint1_radial_34_82)"/>
<path d="M16.8674 21.6444C19.2301 21.6444 21.1455 19.729 21.1455 17.3663C21.1455 15.0036 19.2301 13.0883 16.8674 13.0883C14.5047 13.0883 12.5894 15.0036 12.5894 17.3663C12.5894 19.729 14.5047 21.6444 16.8674 21.6444Z" fill="url(#paint2_radial_34_82)"/>
<defs>
<linearGradient id="paint0_linear_34_82" x1="19.8589" y1="17.3663" x2="19.8589" y2="31.9117" gradientUnits="userSpaceOnUse">
<stop stop-color="#00EE7A"/>
<stop offset="1" stop-color="#00C853"/>
</linearGradient>
<radialGradient id="paint1_radial_34_82" cx="0" cy="0" r="1" gradientUnits="userSpaceOnUse" gradientTransform="translate(25.7692 25.211) rotate(78.4769) scale(6.83853 6.83853)">
<stop stop-color="#00EE7A"/>
<stop offset="1" stop-color="#00C853"/>
</radialGradient>
<radialGradient id="paint2_radial_34_82" cx="0" cy="0" r="1" gradientUnits="userSpaceOnUse" gradientTransform="translate(15.5013 14.9437) rotate(78.4769) scale(6.83853)">
<stop stop-color="#00EE7A"/>
<stop offset="1" stop-color="#00C853"/>
</radialGradient>
</defs>
</svg>
