<svg width="44" height="45" viewBox="0 0 44 45" fill="none" xmlns="http://www.w3.org/2000/svg">
<rect y="0.5" width="44" height="44" rx="6" fill="#1B92D1" fill-opacity="0.25"/>
<path d="M29.7447 14.9284C27.2839 15.9476 16.7323 20.3182 13.8169 21.5094C11.8617 22.2724 13.0063 22.9878 13.0063 22.9878C13.0063 22.9878 14.6753 23.56 16.1061 23.9892C17.5367 24.4184 18.2997 23.9416 18.2997 23.9416L25.0237 19.4112C27.4081 17.7898 26.8359 19.125 26.2635 19.6974C25.0237 20.9374 22.9731 22.8924 21.2563 24.4662C20.4933 25.1338 20.8747 25.706 21.2087 25.9922C22.4485 27.0414 25.8345 29.1874 26.0251 29.3304C27.0325 30.0436 29.0141 31.0702 29.3155 28.9012L30.5077 21.4142C30.8893 18.8868 31.2707 16.55 31.3183 15.8824C31.4615 14.2608 29.7447 14.9284 29.7447 14.9284Z" fill="#1B92D1"/>
</svg>
